0 Demo Castle Model
0 Name: Sample LEGO Castle
0 Author: BrickGPT Viewer Demo
0 Unofficial Model

1 4 0 0 0 1 0 0 0 1 0 0 0 1 3001.dat
1 4 32 0 0 1 0 0 0 1 0 0 0 1 3001.dat
1 4 0 0 32 1 0 0 0 1 0 0 0 1 3001.dat
1 4 32 0 32 1 0 0 0 1 0 0 0 1 3001.dat

1 4 0 9.6 0 1 0 0 0 1 0 0 0 1 3001.dat
1 4 32 9.6 0 1 0 0 0 1 0 0 0 1 3001.dat
1 4 0 9.6 32 1 0 0 0 1 0 0 0 1 3001.dat
1 4 32 9.6 32 1 0 0 0 1 0 0 0 1 3001.dat

1 1 16 19.2 0 1 0 0 0 1 0 0 0 1 3003.dat
1 1 16 19.2 32 1 0 0 0 1 0 0 0 1 3003.dat
1 1 0 19.2 16 1 0 0 0 1 0 0 0 1 3003.dat
1 1 32 19.2 16 1 0 0 0 1 0 0 0 1 3003.dat

1 14 8 28.8 8 1 0 0 0 1 0 0 0 1 3003.dat
1 14 24 28.8 8 1 0 0 0 1 0 0 0 1 3003.dat
1 14 8 28.8 24 1 0 0 0 1 0 0 0 1 3003.dat
1 14 24 28.8 24 1 0 0 0 1 0 0 0 1 3003.dat

1 15 16 38.4 16 1 0 0 0 1 0 0 0 1 3005.dat
1 2 8 38.4 0 1 0 0 0 1 0 0 0 1 3004.dat
1 2 24 38.4 0 1 0 0 0 1 0 0 0 1 3004.dat
1 2 8 38.4 32 1 0 0 0 1 0 0 0 1 3004.dat
1 2 24 38.4 32 1 0 0 0 1 0 0 0 1 3004.dat

1 6 0 48 16 1 0 0 0 1 0 0 0 1 3001.dat
1 6 32 48 16 1 0 0 0 1 0 0 0 1 3001.dat
1 6 16 57.6 12 1 0 0 0 1 0 0 0 1 3010.dat
1 6 16 57.6 20 1 0 0 0 1 0 0 0 1 3010.dat