0 LEGO Model
0 Name: my_lego_creation

1 1 24 0 64 1 0 0 0 1 0 0 0 1 3004.dat
1 0 32 8 136 1 0 0 0 1 0 0 0 1 3001.dat
1 0 104 0 0 1 0 0 0 1 0 0 0 1 3004.dat
1 0 56 64 152 1 0 0 0 1 0 0 0 1 3001.dat
1 4 48 80 136 1 0 0 0 1 0 0 0 1 3004.dat
1 15 112 72 64 1 0 0 0 1 0 0 0 1 3005.dat
1 2 40 48 80 1 0 0 0 1 0 0 0 1 3004.dat
1 0 48 40 24 1 0 0 0 1 0 0 0 1 3003.dat
1 6 24 40 88 1 0 0 0 1 0 0 0 1 3010.dat
1 0 8 56 136 1 0 0 0 1 0 0 0 1 3003.dat
1 15 16 64 72 1 0 0 0 1 0 0 0 1 3001.dat
1 14 88 72 48 1 0 0 0 1 0 0 0 1 3005.dat
1 15 8 80 56 1 0 0 0 1 0 0 0 1 3010.dat
1 4 16 24 24 1 0 0 0 1 0 0 0 1 3010.dat
1 1 112 80 88 1 0 0 0 1 0 0 0 1 3010.dat
1 14 88 24 64 1 0 0 0 1 0 0 0 1 3005.dat
1 6 152 80 40 1 0 0 0 1 0 0 0 1 3004.dat
1 2 40 56 96 1 0 0 0 1 0 0 0 1 3001.dat
1 15 56 80 80 1 0 0 0 1 0 0 0 1 3005.dat
1 4 56 0 80 1 0 0 0 1 0 0 0 1 3010.dat
1 14 16 24 144 1 0 0 0 1 0 0 0 1 3010.dat
1 4 48 80 120 1 0 0 0 1 0 0 0 1 3003.dat
1 1 32 32 32 1 0 0 0 1 0 0 0 1 3001.dat
1 4 136 32 144 1 0 0 0 1 0 0 0 1 3001.dat
1 1 96 40 56 1 0 0 0 1 0 0 0 1 3001.dat
1 15 120 8 8 1 0 0 0 1 0 0 0 1 3005.dat
1 15 32 80 40 1 0 0 0 1 0 0 0 1 3003.dat
1 4 152 8 96 1 0 0 0 1 0 0 0 1 3001.dat
1 6 112 64 64 1 0 0 0 1 0 0 0 1 3005.dat
1 15 24 80 136 1 0 0 0 1 0 0 0 1 3010.dat
1 2 160 40 24 1 0 0 0 1 0 0 0 1 3003.dat
1 14 40 56 0 1 0 0 0 1 0 0 0 1 3010.dat
1 0 128 16 128 1 0 0 0 1 0 0 0 1 3010.dat
1 1 160 64 152 1 0 0 0 1 0 0 0 1 3004.dat
1 15 88 16 136 1 0 0 0 1 0 0 0 1 3001.dat
1 4 0 72 80 1 0 0 0 1 0 0 0 1 3005.dat
1 1 24 40 72 1 0 0 0 1 0 0 0 1 3005.dat
1 0 56 72 16 1 0 0 0 1 0 0 0 1 3003.dat
1 1 16 64 32 1 0 0 0 1 0 0 0 1 3003.dat
1 6 136 16 64 1 0 0 0 1 0 0 0 1 3001.dat
1 15 104 24 136 1 0 0 0 1 0 0 0 1 3004.dat
1 2 72 48 160 1 0 0 0 1 0 0 0 1 3003.dat
1 1 128 56 24 1 0 0 0 1 0 0 0 1 3004.dat
1 6 16 40 0 1 0 0 0 1 0 0 0 1 3001.dat
1 0 56 72 56 1 0 0 0 1 0 0 0 1 3005.dat
1 0 160 0 56 1 0 0 0 1 0 0 0 1 3005.dat
1 1 80 8 128 1 0 0 0 1 0 0 0 1 3010.dat
1 1 120 24 136 1 0 0 0 1 0 0 0 1 3001.dat
1 15 144 56 56 1 0 0 0 1 0 0 0 1 3003.dat
1 0 104 24 24 1 0 0 0 1 0 0 0 1 3003.dat
1 4 88 48 104 1 0 0 0 1 0 0 0 1 3005.dat
1 0 160 80 24 1 0 0 0 1 0 0 0 1 3003.dat
1 1 80 8 56 1 0 0 0 1 0 0 0 1 3004.dat
1 4 136 56 32 1 0 0 0 1 0 0 0 1 3004.dat
1 15 64 56 56 1 0 0 0 1 0 0 0 1 3005.dat
1 0 112 64 24 1 0 0 0 1 0 0 0 1 3001.dat
1 1 0 8 56 1 0 0 0 1 0 0 0 1 3003.dat
1 15 120 56 48 1 0 0 0 1 0 0 0 1 3003.dat
1 0 8 16 96 1 0 0 0 1 0 0 0 1 3003.dat
1 4 64 56 72 1 0 0 0 1 0 0 0 1 3001.dat
