0 LEGO Model: red car
0 Name: Generated Model
0 Author: BrickGPT
0 Unofficial Model

1 1 -272 272 67.2 1 0 0 0 1 0 0 0 1 3004.dat
1 2 136 216 57.599999999999994 1 0 0 0 1 0 0 0 1 3004.dat
1 6 368 344 28.799999999999997 1 0 0 0 1 0 0 0 1 3622.dat
1 14 280 264 48.0 1 0 0 0 1 0 0 0 1 3023.dat
1 6 56 -280 28.799999999999997 1 0 0 0 1 0 0 0 1 3004.dat
1 4 -56 -384 86.39999999999999 1 0 0 0 1 0 0 0 1 3004.dat
1 6 -176 -400 9.6 1 0 0 0 1 0 0 0 1 3001.dat
1 1 -336 -368 48.0 1 0 0 0 1 0 0 0 1 3001.dat
1 6 -160 -120 96.0 1 0 0 0 1 0 0 0 1 3023.dat
1 1 152 -272 86.39999999999999 1 0 0 0 1 0 0 0 1 3023.dat
1 1 400 80 57.599999999999994 1 0 0 0 1 0 0 0 1 3004.dat
1 4 -304 272 57.599999999999994 1 0 0 0 1 0 0 0 1 3622.dat
1 14 16 72 0.0 1 0 0 0 1 0 0 0 1 3001.dat
1 4 8 344 48.0 1 0 0 0 1 0 0 0 1 3001.dat
1 1 -208 -208 76.8 1 0 0 0 1 0 0 0 1 3023.dat
1 1 32 -216 38.4 1 0 0 0 1 0 0 0 1 3023.dat
1 1 -328 48 76.8 1 0 0 0 1 0 0 0 1 3001.dat
1 4 264 152 0.0 1 0 0 0 1 0 0 0 1 3001.dat
1 1 -232 16 67.2 1 0 0 0 1 0 0 0 1 3023.dat
1 1 8 -344 19.2 1 0 0 0 1 0 0 0 1 3023.dat
